<svg width="38" height="38" viewBox="0 0 38 38" fill="none" xmlns="http://www.w3.org/2000/svg">
<g filter="url(#filter0_d_52_247)">
<path d="M22.0018 21.52V19.0316C22.026 18.725 21.9845 18.4168 21.8803 18.1275C21.7761 17.8381 21.6115 17.5742 21.3974 17.3534C23.4164 17.1284 25.5383 16.3632 25.5383 12.8525C25.5381 11.9548 25.1928 11.0915 24.5738 10.4413C24.8669 9.65589 24.8462 8.78775 24.5159 8.01723C24.5159 8.01723 23.7572 7.79218 22.0018 8.96885C20.5281 8.56944 18.9746 8.56944 17.5009 8.96885C15.7456 7.79218 14.9868 8.01723 14.9868 8.01723C14.6566 8.78775 14.6359 9.65589 14.929 10.4413C14.3053 11.0963 13.9597 11.9674 13.9645 12.8718C13.9645 16.3568 16.0863 17.122 18.1053 17.3727C17.8938 17.5913 17.7306 17.852 17.6265 18.1378C17.5224 18.4236 17.4796 18.7282 17.5009 19.0316V21.52M17.5009 19.591C14.286 20.5555 14.286 17.9836 13 17.6621L17.5009 19.591Z" stroke="white" stroke-linecap="round" stroke-linejoin="round"/>
<circle cx="19" cy="15" r="14.5" stroke="white"/>
</g>
<defs>
<filter id="filter0_d_52_247" x="0" y="0" width="38" height="38" filterUnits="userSpaceOnUse" color-interpolation-filters="sRGB">
<feFlood flood-opacity="0" result="BackgroundImageFix"/>
<feColorMatrix in="SourceAlpha" type="matrix" values="0 0 0 0 0 0 0 0 0 0 0 0 0 0 0 0 0 0 127 0" result="hardAlpha"/>
<feOffset dy="4"/>
<feGaussianBlur stdDeviation="2"/>
<feComposite in2="hardAlpha" operator="out"/>
<feColorMatrix type="matrix" values="0 0 0 0 0 0 0 0 0 0 0 0 0 0 0 0 0 0 0.25 0"/>
<feBlend mode="normal" in2="BackgroundImageFix" result="effect1_dropShadow_52_247"/>
<feBlend mode="normal" in="SourceGraphic" in2="effect1_dropShadow_52_247" result="shape"/>
</filter>
</defs>
</svg>
