<svg width="38" height="38" viewBox="0 0 38 38" fill="none" xmlns="http://www.w3.org/2000/svg">
<g filter="url(#filter0_d_52_250)">
<path d="M22.1904 12.3674C23.3487 12.3674 24.4595 12.8275 25.2786 13.6465C26.0976 14.4656 26.5577 15.5764 26.5577 16.7347V21.83H23.6462V16.7347C23.6462 16.3486 23.4928 15.9784 23.2198 15.7053C22.9467 15.4323 22.5765 15.2789 22.1904 15.2789C21.8043 15.2789 21.434 15.4323 21.161 15.7053C20.888 15.9784 20.7346 16.3486 20.7346 16.7347V21.83H17.823V16.7347C17.823 15.5764 18.2831 14.4656 19.1022 13.6465C19.9212 12.8275 21.0321 12.3674 22.1904 12.3674V12.3674Z" stroke="white" stroke-linecap="round" stroke-linejoin="round"/>
<path d="M14.9116 13.0953H12V21.83H14.9116V13.0953Z" stroke="white" stroke-linecap="round" stroke-linejoin="round"/>
<path d="M13.4558 10.9116C14.2598 10.9116 14.9116 10.2598 14.9116 9.45579C14.9116 8.65178 14.2598 8 13.4558 8C12.6518 8 12 8.65178 12 9.45579C12 10.2598 12.6518 10.9116 13.4558 10.9116Z" stroke="white" stroke-linecap="round" stroke-linejoin="round"/>
<circle cx="19" cy="15" r="14.5" stroke="white"/>
</g>
<defs>
<filter id="filter0_d_52_250" x="0" y="0" width="38" height="38" filterUnits="userSpaceOnUse" color-interpolation-filters="sRGB">
<feFlood flood-opacity="0" result="BackgroundImageFix"/>
<feColorMatrix in="SourceAlpha" type="matrix" values="0 0 0 0 0 0 0 0 0 0 0 0 0 0 0 0 0 0 127 0" result="hardAlpha"/>
<feOffset dy="4"/>
<feGaussianBlur stdDeviation="2"/>
<feComposite in2="hardAlpha" operator="out"/>
<feColorMatrix type="matrix" values="0 0 0 0 0 0 0 0 0 0 0 0 0 0 0 0 0 0 0.25 0"/>
<feBlend mode="normal" in2="BackgroundImageFix" result="effect1_dropShadow_52_250"/>
<feBlend mode="normal" in="SourceGraphic" in2="effect1_dropShadow_52_250" result="shape"/>
</filter>
</defs>
</svg>
